<?xml version="1.0" encoding="utf-8"?>
<!-- Generator: Adobe Illustrator 26.1.0, SVG Export Plug-In . SVG Version: 6.00 Build 0)  -->
<svg version="1.1"
	 id="svg2" xmlns:cc="http://creativecommons.org/ns#" xmlns:dc="http://purl.org/dc/elements/1.1/" xmlns:inkscape="http://www.inkscape.org/namespaces/inkscape" xmlns:rdf="http://www.w3.org/1999/02/22-rdf-syntax-ns#" xmlns:sodipodi="http://sodipodi.sourceforge.net/DTD/sodipodi-0.dtd" xmlns:svg="http://www.w3.org/2000/svg"
	 xmlns="http://www.w3.org/2000/svg" xmlns:xlink="http://www.w3.org/1999/xlink" x="0px" y="0px" viewBox="0 0 1000 500"
	 style="enable-background:new 0 0 1000 500;" xml:space="preserve">
<style type="text/css">
	.st0{enable-background:new    ;}
	.st1{fill:#FFFFFF;}
	.st2{fill:none;}
</style>
<sodipodi:namedview  bordercolor="#666666" borderopacity="1.0" id="base" inkscape:current-layer="layer1" inkscape:cx="694.64553" inkscape:cy="640.01775" inkscape:document-units="px" inkscape:pageopacity="0.0" inkscape:pageshadow="2" inkscape:window-height="1034" inkscape:window-maximized="1" inkscape:window-width="1920" inkscape:window-x="0" inkscape:window-y="22" inkscape:zoom="0.49497475" pagecolor="#ffffff" showgrid="false">
	</sodipodi:namedview>
<g class="st0">
	<path class="st1" d="M405.7,75.3v2.4c-4.3,0.5-7.4,0.9-9.3,1.2c-1.9,0.3-3.9,1.3-6.2,3c-3.5,2.5-5.7,4.8-6.6,7.1
		c-0.9,2.2-1.4,6-1.6,11.5c-0.3,0.9-0.3,1.7,0,2.6l7.9,157.6c0.2,6.6,1.9,12.3,5.1,17.1c3.2,4.8,10.1,7.3,20.8,7.3v2.3h-73.6v-2.3
		c9.7-1,16.2-3.6,19.6-7.8c3.4-4.3,4.8-10.9,4.3-19.9l-7.9-163h-0.6l-80.3,193.1l-75.9-186.1h-0.6l-8.2,150.4
		c-0.4,8.3,0.1,14.7,1.6,19.2c1.5,4.6,3.9,7.8,7.2,9.8c3.3,2,8.2,3.4,14.7,4.4v2.3h-57.3v-2.3c7.3-0.1,12.9-1.7,16.7-4.9
		c3.8-3.2,6.3-7.1,7.5-11.9c1.2-4.8,2.1-11.3,2.7-19.5l9.1-155.5c0-0.6-0.6-1.6-1.9-3.1c-1.2-1.5-2.8-3-4.6-4.5
		c-1.8-1.5-3.5-2.7-5.2-3.5c-3.5-2-6.5-3.2-9.1-3.5c-2.6-0.3-6.2-0.6-10.8-0.9v-2.4h52.8l70.4,173.5L358,75.3H405.7z"/>
	<path class="st1" d="M619.5,75.3v2.4c-5.8,0.7-10.5,2.5-14.4,5.5c-3.8,3-7,6.8-9.7,11.6c-2.7,4.8-5.7,11.1-9.1,18.9
		c-0.5,0.5-1,1.6-1.5,3.5L519.1,293h-2.2l-77.5-190.3c0-0.4-0.2-1-0.6-1.7c-3-8.2-6.9-14.1-11.8-17.9c-4.9-3.7-11-5.6-18.3-5.5v-2.4
		h74.7v2.4c-6.3,0.6-11.3,1.7-15.1,3.5c-3.8,1.7-5.7,5.9-5.7,12.4c0,1.7,0.8,5.3,2.5,10.7c0.2,0.5,0.4,1,0.5,1.5
		c0.2,0.5,0.3,0.9,0.4,1.2l59.7,148.9h0.6l51.2-138.7c3.6-9.5,5.4-16.7,5.4-21.5c0-7.6-1.7-12.4-5.2-14.4c-3.4-2-8.6-3.2-15.4-3.6
		v-2.4H619.5z"/>
</g>
<rect x="621.3" y="0" class="st2" width="1060.4" height="141.5"/>
</svg>
